Coordinates
version=1
nRows=7
nColumns=42
inDegrees=yes

Units are S.I. units (second, meters, Newtons, ...)
If the header above contains a line with 'inDegrees', this indicates whether rotational values are in degrees (yes) or radians (no).

endheader
time	pelvis_tilt	pelvis_list	pelvis_rotation	pelvis_tx	pelvis_ty	pelvis_tz	hip_flexion_r	hip_adduction_r	hip_rotation_r	knee_angle_r	knee_adduction_r	knee_angle_r_beta	ankle_angle_r	subtalar_angle_r	mtp_angle_r	hip_flexion_l	hip_adduction_l	hip_rotation_l	knee_angle_l	knee_adduction_l	knee_angle_l_beta	ankle_angle_l	subtalar_angle_l	mtp_angle_l	lumbar_extension	lumbar_bending	lumbar_rotation	arm_flex_r	arm_add_r	arm_rot_r	elbow_flex_r	pro_sup_r	wrist_flex_r	wrist_dev_r	arm_flex_l	arm_add_l	arm_rot_l	elbow_flex_l	pro_sup_l	wrist_flex_l	wrist_dev_l
      3.50000000	      2.46373636	     -3.34553887	     -1.48374862	     -0.06589503	      0.92344977	     -0.07773159	      3.33219089	     -3.91994910	    -20.88345572	     31.19839413	      4.77883745	      0.54451470	     22.48854614	     10.83071257	     -7.57428131	     24.28157744	     -8.68062477	    -18.41784648	     38.05879327	     -2.40001637	      0.66425125	     10.49427646	     -1.36904077	     -7.57428131	    -18.00991154	      4.60653150	     -1.98806363	      9.37831505	    -11.08790526	      0.30181262	     37.33373348	     90.00000001	      0.00000000	      0.00000000	    -13.05041134	    -11.05279525	     -0.95814087	     56.43365761	     90.00000001	      0.00000000	      0.00000000
      3.51000000	      2.73843044	     -3.23857041	     -1.87933093	     -0.06233419	      0.92438581	     -0.07827395	      2.57852262	     -3.95560409	    -19.89762198	     30.51601838	      4.97752748	      0.53260500	     22.39864881	     10.40341107	     -7.57275355	     23.60051844	     -8.37460042	    -17.99220414	     38.07356400	     -2.33784195	      0.66450905	     10.65706511	     -2.53590362	     -7.57275355	    -18.19300734	      4.14239657	     -1.73176065	      9.26779679	    -10.93487882	      0.15783287	     37.42969572	     90.00000001	      0.00000000	      0.00000000	    -13.03611378	    -11.08395806	     -1.02541327	     56.37382233	     90.00000001	      0.00000000	      0.00000000
      3.52000000	      2.68868012	     -3.28562503	     -2.13511214	     -0.05872120	      0.92457284	     -0.07917107	      2.39108972	     -3.96586343	    -19.83017910	     30.45961069	      4.89432898	      0.53162050	     22.37505324	     10.38178809	     -7.57266652	     23.40580466	     -8.28788807	    -17.81673958	     38.22431281	     -2.44799609	      0.66714011	     10.65870521	     -2.57896372	     -7.57266652	    -17.95591069	      3.94752764	     -1.66397397	      9.16010883	    -10.80850415	      0.17957133	     37.43011537	     90.00000001	      0.00000000	      0.00000000	    -13.18949077	    -11.07036190	     -1.02888655	     56.30527557	     90.00000001	      0.00000000	      0.00000000
      3.53000000	      2.94795063	     -3.11195702	     -2.52681905	     -0.05516350	      0.92563687	     -0.07986252	      1.61438052	     -4.13531999	    -19.07257269	     29.72899908	      5.07248932	      0.51886892	     22.17386543	     10.07219681	     -7.57081341	     22.64198007	     -8.04480479	    -17.53934242	     38.14427085	     -2.11163124	      0.66574312	     10.63302976	     -3.98393582	     -7.57081341	    -18.10615112	      3.43777053	     -1.44238509	      9.03384096	    -10.66632669	      0.14843807	     37.67366144	     90.00000001	      0.00000000	      0.00000000	    -13.15943676	    -11.10009829	     -1.21155771	     56.18476565	     90.00000001	      0.00000000	      0.00000000
      3.54000000	      2.86093081	     -3.13901006	     -2.74597545	     -0.05169042	      0.92589242	     -0.08097064	      1.45261049	     -4.18085551	    -19.03678329	     29.64139619	      4.99448214	      0.51733996	     22.14698614	     10.06486074	     -7.57071707	     22.46356826	     -7.98874806	    -17.45932358	     38.25580631	     -2.15219913	      0.66768978	     10.66822811	     -4.03887375	     -7.57071707	    -17.84105195	      3.25484599	     -1.40398066	      8.93137204	    -10.52586751	      0.17829795	     37.69294085	     90.00000001	      0.00000000	      0.00000000	    -13.30084103	    -11.04578481	     -1.20524281	     56.12201999	     90.00000001	      0.00000000	      0.00000000
      3.55000000	      2.95045228	     -2.95978019	     -3.12892668	     -0.04817012	      0.92669740	     -0.08186938	      0.90808363	     -4.41332504	    -18.58116705	     29.01367134	      5.05573778	      0.50638409	     21.96429577	     10.25610176	     -7.56975544	     21.87628081	     -7.81633637	    -17.71819875	     38.10815239	     -1.98285304	      0.66511273	     11.01116344	     -4.70411774	     -7.56975544	    -17.77202932	      2.78260338	     -1.20462303	      8.76543663	    -10.41711810	      0.23886554	     37.99779705	     90.00000001	      0.00000000	      0.00000000	    -13.28983854	    -11.01090546	     -1.42930333	     55.97754864	     90.00000001	      0.00000000	      0.00000000
      3.56000000	      2.82825422	     -2.91298709	     -3.34746735	     -0.04480091	      0.92699855	     -0.08301597	      0.72273897	     -4.54862882	    -18.62634813	     28.77187233	      4.99268663	      0.50216390	     21.92369989	     10.26082973	     -7.56957272	     21.67211833	     -7.79925870	    -17.83588918	     38.13222849	     -1.83835889	      0.66553294	     11.04471180	     -4.76968030	     -7.56957272	    -17.46211441	      2.53180677	     -1.19294293	      8.68075555	    -10.26129827	      0.28792685	     38.09573817	     90.00000001	      0.00000000	      0.00000000	    -13.41713894	    -11.02008779	     -1.47556554	     55.88012841	     90.00000001	      0.00000000	      0.00000000
